<svg xmlns="http://www.w3.org/2000/svg" version="1.1" xmlns:xlink="http://www.w3.org/1999/xlink" xmlns:svgjs="http://svgjs.dev/svgjs" width="1440" height="560" preserveAspectRatio="none" viewBox="0 0 1440 560"><g mask="url(&quot;#SvgjsMask1000&quot;)" fill="none"><rect width="1440" height="560" x="0" y="0" fill="#0e2a47"></rect><path d="M-56.54 345.66L-56.54 345.66" stroke="#132e65" stroke-width="1.5"></path><path d="M-56.54 345.66L94.23 409.34" stroke="#132e65" stroke-width="1.5"></path><path d="M-56.54 345.66L-64.58 511.73" stroke="#132e65" stroke-width="1.5"></path><path d="M-56.54 345.66L68.97 506.74" stroke="#132e65" stroke-width="1.5"></path><path d="M-56.54 345.66L188.19 386.72" stroke="#132e65" stroke-width="1.5"></path><path d="M-64.58 511.73L-64.58 511.73" stroke="#132e65" stroke-width="1.5"></path><path d="M-64.58 511.73L-58.23 644.3" stroke="#132e65" stroke-width="1.5"></path><path d="M-64.58 511.73L68.97 506.74" stroke="#132e65" stroke-width="1.5"></path><path d="M-64.58 511.73L94.23 409.34" stroke="#132e65" stroke-width="1.5"></path><path d="M-58.23 644.3L-58.23 644.3" stroke="#132e65" stroke-width="1.5"></path><path d="M-58.23 644.3L110.79 687.92" stroke="#132e65" stroke-width="1.5"></path><path d="M-58.23 644.3L68.97 506.74" stroke="#132e65" stroke-width="1.5"></path><path d="M-58.23 644.3L94.23 409.34" stroke="#132e65" stroke-width="1.5"></path><path d="M-58.23 644.3L-56.54 345.66" stroke="#132e65" stroke-width="1.5"></path><path d="M-58.23 644.3L250.98 675.71" stroke="#132e65" stroke-width="1.5"></path><path d="M94.23 409.34L94.23 409.34" stroke="#132e65" stroke-width="1.5"></path><path d="M94.23 409.34L188.19 386.72" stroke="#132e65" stroke-width="1.5"></path><path d="M94.23 409.34L68.97 506.74" stroke="#132e65" stroke-width="1.5"></path><path d="M94.23 409.34L110.79 687.92" stroke="#132e65" stroke-width="1.5"></path><path d="M68.97 506.74L68.97 506.74" stroke="#132e65" stroke-width="1.5"></path><path d="M68.97 506.74L188.19 386.72" stroke="#132e65" stroke-width="1.5"></path><path d="M68.97 506.74L110.79 687.92" stroke="#132e65" stroke-width="1.5"></path><path d="M110.79 687.92L110.79 687.92" stroke="#132e65" stroke-width="1.5"></path><path d="M110.79 687.92L250.98 675.71" stroke="#132e65" stroke-width="1.5"></path><path d="M110.79 687.92L-64.58 511.73" stroke="#132e65" stroke-width="1.5"></path><path d="M110.79 687.92L380.13 657.8" stroke="#132e65" stroke-width="1.5"></path><path d="M188.19 386.72L188.19 386.72" stroke="#132e65" stroke-width="1.5"></path><path d="M250.98 675.71L250.98 675.71" stroke="#132e65" stroke-width="1.5"></path><path d="M250.98 675.71L380.13 657.8" stroke="#132e65" stroke-width="1.5"></path><path d="M250.98 675.71L354.19 526.99" stroke="#132e65" stroke-width="1.5"></path><path d="M250.98 675.71L68.97 506.74" stroke="#132e65" stroke-width="1.5"></path><path d="M250.98 675.71L533.17 705.07" stroke="#132e65" stroke-width="1.5"></path><path d="M250.98 675.71L188.19 386.72" stroke="#132e65" stroke-width="1.5"></path><path d="M399.63 383.19L399.63 383.19" stroke="#132e65" stroke-width="1.5"></path><path d="M399.63 383.19L543.76 391.11" stroke="#132e65" stroke-width="1.5"></path><path d="M399.63 383.19L354.19 526.99" stroke="#132e65" stroke-width="1.5"></path><path d="M399.63 383.19L188.19 386.72" stroke="#132e65" stroke-width="1.5"></path><path d="M399.63 383.19L542.3 542.34" stroke="#132e65" stroke-width="1.5"></path><path d="M399.63 383.19L380.13 657.8" stroke="#132e65" stroke-width="1.5"></path><path d="M354.19 526.99L354.19 526.99" stroke="#132e65" stroke-width="1.5"></path><path d="M354.19 526.99L380.13 657.8" stroke="#132e65" stroke-width="1.5"></path><path d="M354.19 526.99L542.3 542.34" stroke="#132e65" stroke-width="1.5"></path><path d="M380.13 657.8L380.13 657.8" stroke="#132e65" stroke-width="1.5"></path><path d="M543.76 391.11L543.76 391.11" stroke="#132e65" stroke-width="1.5"></path><path d="M543.76 391.11L542.3 542.34" stroke="#132e65" stroke-width="1.5"></path><path d="M542.3 542.34L542.3 542.34" stroke="#132e65" stroke-width="1.5"></path><path d="M542.3 542.34L533.17 705.07" stroke="#132e65" stroke-width="1.5"></path><path d="M533.17 705.07L533.17 705.07" stroke="#132e65" stroke-width="1.5"></path><path d="M533.17 705.07L665.4 681.5" stroke="#132e65" stroke-width="1.5"></path><path d="M533.17 705.07L380.13 657.8" stroke="#132e65" stroke-width="1.5"></path><path d="M533.17 705.07L354.19 526.99" stroke="#132e65" stroke-width="1.5"></path><path d="M533.17 705.07L706.89 494.92" stroke="#132e65" stroke-width="1.5"></path><path d="M649.85 244.27L649.85 244.27" stroke="#132e65" stroke-width="1.5"></path><path d="M649.85 244.27L706.92 399.38" stroke="#132e65" stroke-width="1.5"></path><path d="M649.85 244.27L543.76 391.11" stroke="#132e65" stroke-width="1.5"></path><path d="M649.85 244.27L798.61 362.24" stroke="#132e65" stroke-width="1.5"></path><path d="M706.92 399.38L706.92 399.38" stroke="#132e65" stroke-width="1.5"></path><path d="M706.92 399.38L706.89 494.92" stroke="#132e65" stroke-width="1.5"></path><path d="M706.92 399.38L798.61 362.24" stroke="#132e65" stroke-width="1.5"></path><path d="M706.92 399.38L543.76 391.11" stroke="#132e65" stroke-width="1.5"></path><path d="M706.92 399.38L835.53 515.65" stroke="#132e65" stroke-width="1.5"></path><path d="M706.89 494.92L706.89 494.92" stroke="#132e65" stroke-width="1.5"></path><path d="M706.89 494.92L835.53 515.65" stroke="#132e65" stroke-width="1.5"></path><path d="M706.89 494.92L798.61 362.24" stroke="#132e65" stroke-width="1.5"></path><path d="M665.4 681.5L665.4 681.5" stroke="#132e65" stroke-width="1.5"></path><path d="M665.4 681.5L542.3 542.34" stroke="#132e65" stroke-width="1.5"></path><path d="M665.4 681.5L706.89 494.92" stroke="#132e65" stroke-width="1.5"></path><path d="M665.4 681.5L835.53 515.65" stroke="#132e65" stroke-width="1.5"></path><path d="M665.4 681.5L706.92 399.38" stroke="#132e65" stroke-width="1.5"></path><path d="M851.85 103.61L851.85 103.61" stroke="#132e65" stroke-width="1.5"></path><path d="M851.85 103.61L846.46 254.31" stroke="#132e65" stroke-width="1.5"></path><path d="M851.85 103.61L1011.25 41.52" stroke="#132e65" stroke-width="1.5"></path><path d="M851.85 103.61L1000.54 247.63" stroke="#132e65" stroke-width="1.5"></path><path d="M851.85 103.61L986.11 -92.18" stroke="#132e65" stroke-width="1.5"></path><path d="M851.85 103.61L649.85 244.27" stroke="#132e65" stroke-width="1.5"></path><path d="M846.46 254.31L846.46 254.31" stroke="#132e65" stroke-width="1.5"></path><path d="M846.46 254.31L798.61 362.24" stroke="#132e65" stroke-width="1.5"></path><path d="M846.46 254.31L1000.54 247.63" stroke="#132e65" stroke-width="1.5"></path><path d="M846.46 254.31L1000.11 369.87" stroke="#132e65" stroke-width="1.5"></path><path d="M846.46 254.31L649.85 244.27" stroke="#132e65" stroke-width="1.5"></path><path d="M846.46 254.31L706.92 399.38" stroke="#132e65" stroke-width="1.5"></path><path d="M798.61 362.24L798.61 362.24" stroke="#132e65" stroke-width="1.5"></path><path d="M798.61 362.24L835.53 515.65" stroke="#132e65" stroke-width="1.5"></path><path d="M798.61 362.24L1000.11 369.87" stroke="#132e65" stroke-width="1.5"></path><path d="M835.53 515.65L835.53 515.65" stroke="#132e65" stroke-width="1.5"></path><path d="M835.53 515.65L941.39 553.58" stroke="#132e65" stroke-width="1.5"></path><path d="M835.53 515.65L1000.11 369.87" stroke="#132e65" stroke-width="1.5"></path><path d="M986.11 -92.18L986.11 -92.18" stroke="#132e65" stroke-width="1.5"></path><path d="M986.11 -92.18L1091.26 -44.59" stroke="#132e65" stroke-width="1.5"></path><path d="M986.11 -92.18L1011.25 41.52" stroke="#132e65" stroke-width="1.5"></path><path d="M986.11 -92.18L1267.01 -69.2" stroke="#132e65" stroke-width="1.5"></path><path d="M986.11 -92.18L1000.54 247.63" stroke="#132e65" stroke-width="1.5"></path><path d="M986.11 -92.18L1096.76 239.07" stroke="#132e65" stroke-width="1.5"></path><path d="M1011.25 41.52L1011.25 41.52" stroke="#132e65" stroke-width="1.5"></path><path d="M1011.25 41.52L1091.26 -44.59" stroke="#132e65" stroke-width="1.5"></path><path d="M1000.54 247.63L1000.54 247.63" stroke="#132e65" stroke-width="1.5"></path><path d="M1000.54 247.63L1096.76 239.07" stroke="#132e65" stroke-width="1.5"></path><path d="M1000.54 247.63L1000.11 369.87" stroke="#132e65" stroke-width="1.5"></path><path d="M1000.11 369.87L1000.11 369.87" stroke="#132e65" stroke-width="1.5"></path><path d="M1000.11 369.87L1158.63 380.15" stroke="#132e65" stroke-width="1.5"></path><path d="M1000.11 369.87L1096.76 239.07" stroke="#132e65" stroke-width="1.5"></path><path d="M941.39 553.58L941.39 553.58" stroke="#132e65" stroke-width="1.5"></path><path d="M941.39 553.58L1000.11 369.87" stroke="#132e65" stroke-width="1.5"></path><path d="M941.39 553.58L1139.67 556.29" stroke="#132e65" stroke-width="1.5"></path><path d="M941.39 553.58L1147.95 670.38" stroke="#132e65" stroke-width="1.5"></path><path d="M1091.26 -44.59L1091.26 -44.59" stroke="#132e65" stroke-width="1.5"></path><path d="M1091.26 -44.59L1267.01 -69.2" stroke="#132e65" stroke-width="1.5"></path><path d="M1091.26 -44.59L851.85 103.61" stroke="#132e65" stroke-width="1.5"></path><path d="M1091.26 -44.59L1096.76 239.07" stroke="#132e65" stroke-width="1.5"></path><path d="M1091.26 -44.59L1000.54 247.63" stroke="#132e65" stroke-width="1.5"></path><path d="M1096.76 239.07L1096.76 239.07" stroke="#132e65" stroke-width="1.5"></path><path d="M1096.76 239.07L1158.63 380.15" stroke="#132e65" stroke-width="1.5"></path><path d="M1096.76 239.07L1284.33 216.85" stroke="#132e65" stroke-width="1.5"></path><path d="M1096.76 239.07L1011.25 41.52" stroke="#132e65" stroke-width="1.5"></path><path d="M1096.76 239.07L846.46 254.31" stroke="#132e65" stroke-width="1.5"></path><path d="M1158.63 380.15L1158.63 380.15" stroke="#132e65" stroke-width="1.5"></path><path d="M1158.63 380.15L1255.25 498.22" stroke="#132e65" stroke-width="1.5"></path><path d="M1139.67 556.29L1139.67 556.29" stroke="#132e65" stroke-width="1.5"></path><path d="M1139.67 556.29L1147.95 670.38" stroke="#132e65" stroke-width="1.5"></path><path d="M1139.67 556.29L1255.25 498.22" stroke="#132e65" stroke-width="1.5"></path><path d="M1139.67 556.29L1261.27 637.51" stroke="#132e65" stroke-width="1.5"></path><path d="M1139.67 556.29L1158.63 380.15" stroke="#132e65" stroke-width="1.5"></path><path d="M1147.95 670.38L1147.95 670.38" stroke="#132e65" stroke-width="1.5"></path><path d="M1147.95 670.38L1261.27 637.51" stroke="#132e65" stroke-width="1.5"></path><path d="M1147.95 670.38L1255.25 498.22" stroke="#132e65" stroke-width="1.5"></path><path d="M1147.95 670.38L1421.08 695.57" stroke="#132e65" stroke-width="1.5"></path><path d="M1267.01 -69.2L1267.01 -69.2" stroke="#132e65" stroke-width="1.5"></path><path d="M1267.01 -69.2L1456.29 -55.9" stroke="#132e65" stroke-width="1.5"></path><path d="M1267.01 -69.2L1011.25 41.52" stroke="#132e65" stroke-width="1.5"></path><path d="M1267.01 -69.2L1284.33 216.85" stroke="#132e65" stroke-width="1.5"></path><path d="M1284.33 216.85L1284.33 216.85" stroke="#132e65" stroke-width="1.5"></path><path d="M1284.33 216.85L1446.31 229.27" stroke="#132e65" stroke-width="1.5"></path><path d="M1284.33 216.85L1310.7 399.38" stroke="#132e65" stroke-width="1.5"></path><path d="M1284.33 216.85L1158.63 380.15" stroke="#132e65" stroke-width="1.5"></path><path d="M1310.7 399.38L1310.7 399.38" stroke="#132e65" stroke-width="1.5"></path><path d="M1310.7 399.38L1413.13 403.56" stroke="#132e65" stroke-width="1.5"></path><path d="M1310.7 399.38L1255.25 498.22" stroke="#132e65" stroke-width="1.5"></path><path d="M1310.7 399.38L1158.63 380.15" stroke="#132e65" stroke-width="1.5"></path><path d="M1255.25 498.22L1255.25 498.22" stroke="#132e65" stroke-width="1.5"></path><path d="M1255.25 498.22L1261.27 637.51" stroke="#132e65" stroke-width="1.5"></path><path d="M1255.25 498.22L1413.13 403.56" stroke="#132e65" stroke-width="1.5"></path><path d="M1261.27 637.51L1261.27 637.51" stroke="#132e65" stroke-width="1.5"></path><path d="M1261.27 637.51L1421.08 695.57" stroke="#132e65" stroke-width="1.5"></path><path d="M1261.27 637.51L1310.7 399.38" stroke="#132e65" stroke-width="1.5"></path><path d="M1261.27 637.51L1158.63 380.15" stroke="#132e65" stroke-width="1.5"></path><path d="M1456.29 -55.9L1456.29 -55.9" stroke="#132e65" stroke-width="1.5"></path><path d="M1456.29 -55.9L1590.42 -79.19" stroke="#132e65" stroke-width="1.5"></path><path d="M1456.29 -55.9L1547.91 98.13" stroke="#132e65" stroke-width="1.5"></path><path d="M1446.31 229.27L1446.31 229.27" stroke="#132e65" stroke-width="1.5"></path><path d="M1446.31 229.27L1598.2 209.06" stroke="#132e65" stroke-width="1.5"></path><path d="M1446.31 229.27L1547.91 98.13" stroke="#132e65" stroke-width="1.5"></path><path d="M1446.31 229.27L1584.35 340.19" stroke="#132e65" stroke-width="1.5"></path><path d="M1446.31 229.27L1413.13 403.56" stroke="#132e65" stroke-width="1.5"></path><path d="M1413.13 403.56L1413.13 403.56" stroke="#132e65" stroke-width="1.5"></path><path d="M1413.13 403.56L1584.35 340.19" stroke="#132e65" stroke-width="1.5"></path><path d="M1421.08 695.57L1421.08 695.57" stroke="#132e65" stroke-width="1.5"></path><path d="M1421.08 695.57L1600.01 699.45" stroke="#132e65" stroke-width="1.5"></path><path d="M1421.08 695.57L1580.39 517.14" stroke="#132e65" stroke-width="1.5"></path><path d="M1421.08 695.57L1255.25 498.22" stroke="#132e65" stroke-width="1.5"></path><path d="M1590.42 -79.19L1590.42 -79.19" stroke="#132e65" stroke-width="1.5"></path><path d="M1590.42 -79.19L1547.91 98.13" stroke="#132e65" stroke-width="1.5"></path><path d="M1590.42 -79.19L1598.2 209.06" stroke="#132e65" stroke-width="1.5"></path><path d="M1590.42 -79.19L1267.01 -69.2" stroke="#132e65" stroke-width="1.5"></path><path d="M1590.42 -79.19L1446.31 229.27" stroke="#132e65" stroke-width="1.5"></path><path d="M1547.91 98.13L1547.91 98.13" stroke="#132e65" stroke-width="1.5"></path><path d="M1547.91 98.13L1598.2 209.06" stroke="#132e65" stroke-width="1.5"></path><path d="M1547.91 98.13L1584.35 340.19" stroke="#132e65" stroke-width="1.5"></path><path d="M1598.2 209.06L1598.2 209.06" stroke="#132e65" stroke-width="1.5"></path><path d="M1598.2 209.06L1584.35 340.19" stroke="#132e65" stroke-width="1.5"></path><path d="M1598.2 209.06L1413.13 403.56" stroke="#132e65" stroke-width="1.5"></path><path d="M1584.35 340.19L1584.35 340.19" stroke="#132e65" stroke-width="1.5"></path><path d="M1584.35 340.19L1580.39 517.14" stroke="#132e65" stroke-width="1.5"></path><path d="M1580.39 517.14L1580.39 517.14" stroke="#132e65" stroke-width="1.5"></path><path d="M1580.39 517.14L1600.01 699.45" stroke="#132e65" stroke-width="1.5"></path><path d="M1580.39 517.14L1413.13 403.56" stroke="#132e65" stroke-width="1.5"></path><path d="M1600.01 699.45L1600.01 699.45" stroke="#132e65" stroke-width="1.5"></path><path d="M1600.01 699.45L1261.27 637.51" stroke="#132e65" stroke-width="1.5"></path><path d="M1600.01 699.45L1413.13 403.56" stroke="#132e65" stroke-width="1.5"></path><path d="M1600.01 699.45L1584.35 340.19" stroke="#132e65" stroke-width="1.5"></path><path d="M1600.01 699.45L1255.25 498.22" stroke="#132e65" stroke-width="1.5"></path><circle r="5" cx="-56.54" cy="345.66" fill="#132e65"></circle><circle r="5" cx="-64.58" cy="511.73" fill="#132e65"></circle><circle r="5" cx="-58.23" cy="644.3" fill="#132e65"></circle><circle r="5" cx="94.23" cy="409.34" fill="#132e65"></circle><circle r="5" cx="68.97" cy="506.74" fill="#132e65"></circle><circle r="5" cx="110.79" cy="687.92" fill="#132e65"></circle><circle r="5" cx="188.19" cy="386.72" fill="#132e65"></circle><circle r="5" cx="250.98" cy="675.71" fill="#132e65"></circle><circle r="5" cx="399.63" cy="383.19" fill="#132e65"></circle><circle r="5" cx="354.19" cy="526.99" fill="#132e65"></circle><circle r="5" cx="380.13" cy="657.8" fill="#132e65"></circle><circle r="5" cx="543.76" cy="391.11" fill="#132e65"></circle><circle r="5" cx="542.3" cy="542.34" fill="#132e65"></circle><circle r="5" cx="533.17" cy="705.07" fill="#132e65"></circle><circle r="5" cx="649.85" cy="244.27" fill="#132e65"></circle><circle r="5" cx="706.92" cy="399.38" fill="#132e65"></circle><circle r="5" cx="706.89" cy="494.92" fill="#132e65"></circle><circle r="5" cx="665.4" cy="681.5" fill="#132e65"></circle><circle r="5" cx="851.85" cy="103.61" fill="#132e65"></circle><circle r="5" cx="846.46" cy="254.31" fill="#132e65"></circle><circle r="5" cx="798.61" cy="362.24" fill="#132e65"></circle><circle r="5" cx="835.53" cy="515.65" fill="#132e65"></circle><circle r="5" cx="986.11" cy="-92.18" fill="#132e65"></circle><circle r="5" cx="1011.25" cy="41.52" fill="#132e65"></circle><circle r="5" cx="1000.54" cy="247.63" fill="#132e65"></circle><circle r="5" cx="1000.11" cy="369.87" fill="#132e65"></circle><circle r="5" cx="941.39" cy="553.58" fill="#132e65"></circle><circle r="5" cx="1091.26" cy="-44.59" fill="#132e65"></circle><circle r="5" cx="1096.76" cy="239.07" fill="#132e65"></circle><circle r="5" cx="1158.63" cy="380.15" fill="#132e65"></circle><circle r="5" cx="1139.67" cy="556.29" fill="#132e65"></circle><circle r="5" cx="1147.95" cy="670.38" fill="#132e65"></circle><circle r="5" cx="1267.01" cy="-69.2" fill="#132e65"></circle><circle r="5" cx="1284.33" cy="216.85" fill="#132e65"></circle><circle r="5" cx="1310.7" cy="399.38" fill="#132e65"></circle><circle r="5" cx="1255.25" cy="498.22" fill="#132e65"></circle><circle r="5" cx="1261.27" cy="637.51" fill="#132e65"></circle><circle r="5" cx="1456.29" cy="-55.9" fill="#132e65"></circle><circle r="5" cx="1446.31" cy="229.27" fill="#132e65"></circle><circle r="5" cx="1413.13" cy="403.56" fill="#132e65"></circle><circle r="5" cx="1421.08" cy="695.57" fill="#132e65"></circle><circle r="5" cx="1590.42" cy="-79.19" fill="#132e65"></circle><circle r="5" cx="1547.91" cy="98.13" fill="#132e65"></circle><circle r="5" cx="1598.2" cy="209.06" fill="#132e65"></circle><circle r="5" cx="1584.35" cy="340.19" fill="#132e65"></circle><circle r="5" cx="1580.39" cy="517.14" fill="#132e65"></circle><circle r="5" cx="1600.01" cy="699.45" fill="#132e65"></circle><path d="M80.31 529.82L80.31 529.82" stroke="hsl(228.5, 77.2%, 51.5%)" stroke-width="1.5"></path><path d="M80.31 529.82L-71.98 562.46" stroke="hsl(228.5, 77.2%, 51.5%)" stroke-width="1.5"></path><path d="M80.31 529.82L204.53 643.09" stroke="hsl(228.5, 77.2%, 51.5%)" stroke-width="1.5"></path><path d="M80.31 529.82L89.08 707.89" stroke="hsl(228.5, 77.2%, 51.5%)" stroke-width="1.5"></path><path d="M89.08 707.89L89.08 707.89" stroke="hsl(228.5, 77.2%, 51.5%)" stroke-width="1.5"></path><path d="M89.08 707.89L204.53 643.09" stroke="hsl(228.5, 77.2%, 51.5%)" stroke-width="1.5"></path><path d="M89.08 707.89L-75.23 669.83" stroke="hsl(228.5, 77.2%, 51.5%)" stroke-width="1.5"></path><path d="M839.6 360.63L839.6 360.63" stroke="hsl(228.5, 77.2%, 51.5%)" stroke-width="1.5"></path><path d="M839.6 360.63L940.43 405.9" stroke="hsl(228.5, 77.2%, 51.5%)" stroke-width="1.5"></path><path d="M839.6 360.63L838.31 506.1" stroke="hsl(228.5, 77.2%, 51.5%)" stroke-width="1.5"></path><path d="M940.43 405.9L940.43 405.9" stroke="hsl(228.5, 77.2%, 51.5%)" stroke-width="1.5"></path><path d="M940.43 405.9L838.31 506.1" stroke="hsl(228.5, 77.2%, 51.5%)" stroke-width="1.5"></path><path d="M940.43 405.9L969 551.75" stroke="hsl(228.5, 77.2%, 51.5%)" stroke-width="1.5"></path><path d="M940.43 405.9L1096.06 358.97" stroke="hsl(228.5, 77.2%, 51.5%)" stroke-width="1.5"></path><path d="M1003.32 659.36L1003.32 659.36" stroke="hsl(228.5, 77.2%, 51.5%)" stroke-width="1.5"></path><path d="M1003.32 659.36L969 551.75" stroke="hsl(228.5, 77.2%, 51.5%)" stroke-width="1.5"></path><path d="M1003.32 659.36L1155.13 557.48" stroke="hsl(228.5, 77.2%, 51.5%)" stroke-width="1.5"></path><path d="M1003.32 659.36L817.11 674.54" stroke="hsl(228.5, 77.2%, 51.5%)" stroke-width="1.5"></path><path d="M1096.06 358.97L1096.06 358.97" stroke="hsl(228.5, 77.2%, 51.5%)" stroke-width="1.5"></path><path d="M1096.06 358.97L1123.57 216.7" stroke="hsl(228.5, 77.2%, 51.5%)" stroke-width="1.5"></path><path d="M1096.06 358.97L1263.11 364.65" stroke="hsl(228.5, 77.2%, 51.5%)" stroke-width="1.5"></path><path d="M1096.06 358.97L1155.13 557.48" stroke="hsl(228.5, 77.2%, 51.5%)" stroke-width="1.5"></path><path d="M1096.06 358.97L1264.61 216.86" stroke="hsl(228.5, 77.2%, 51.5%)" stroke-width="1.5"></path><path d="M1155.13 557.48L1155.13 557.48" stroke="hsl(228.5, 77.2%, 51.5%)" stroke-width="1.5"></path><path d="M1155.13 557.48L1268.07 557.18" stroke="hsl(228.5, 77.2%, 51.5%)" stroke-width="1.5"></path><path d="M1260.88 73.81L1260.88 73.81" stroke="hsl(228.5, 77.2%, 51.5%)" stroke-width="1.5"></path><path d="M1260.88 73.81L1149.59 95.88" stroke="hsl(228.5, 77.2%, 51.5%)" stroke-width="1.5"></path><path d="M1260.88 73.81L1279.71 -60.41" stroke="hsl(228.5, 77.2%, 51.5%)" stroke-width="1.5"></path><path d="M1260.88 73.81L1264.61 216.86" stroke="hsl(228.5, 77.2%, 51.5%)" stroke-width="1.5"></path><path d="M1260.88 73.81L1443.56 99.39" stroke="hsl(228.5, 77.2%, 51.5%)" stroke-width="1.5"></path><path d="M1427.46 215.94L1427.46 215.94" stroke="hsl(228.5, 77.2%, 51.5%)" stroke-width="1.5"></path><path d="M1427.46 215.94L1443.56 99.39" stroke="hsl(228.5, 77.2%, 51.5%)" stroke-width="1.5"></path><path d="M1427.46 215.94L1560.54 219.31" stroke="hsl(228.5, 77.2%, 51.5%)" stroke-width="1.5"></path><path d="M1427.46 215.94L1264.61 216.86" stroke="hsl(228.5, 77.2%, 51.5%)" stroke-width="1.5"></path><path d="M1427.46 215.94L1569.98 109.91" stroke="hsl(228.5, 77.2%, 51.5%)" stroke-width="1.5"></path><path d="M1448.38 398.55L1448.38 398.55" stroke="hsl(228.5, 77.2%, 51.5%)" stroke-width="1.5"></path><path d="M1448.38 398.55L1541.31 495.04" stroke="hsl(228.5, 77.2%, 51.5%)" stroke-width="1.5"></path><path d="M1448.38 398.55L1417.96 555.1" stroke="hsl(228.5, 77.2%, 51.5%)" stroke-width="1.5"></path><path d="M1448.38 398.55L1427.46 215.94" stroke="hsl(228.5, 77.2%, 51.5%)" stroke-width="1.5"></path><path d="M1448.38 398.55L1263.11 364.65" stroke="hsl(228.5, 77.2%, 51.5%)" stroke-width="1.5"></path><path d="M1448.38 398.55L1560.54 219.31" stroke="hsl(228.5, 77.2%, 51.5%)" stroke-width="1.5"></path><path d="M1448.38 398.55L1268.07 557.18" stroke="hsl(228.5, 77.2%, 51.5%)" stroke-width="1.5"></path><path d="M1417.96 555.1L1417.96 555.1" stroke="hsl(228.5, 77.2%, 51.5%)" stroke-width="1.5"></path><path d="M1417.96 555.1L1401.95 670.99" stroke="hsl(228.5, 77.2%, 51.5%)" stroke-width="1.5"></path><path d="M1417.96 555.1L1541.31 495.04" stroke="hsl(228.5, 77.2%, 51.5%)" stroke-width="1.5"></path><path d="M1417.96 555.1L1268.07 557.18" stroke="hsl(228.5, 77.2%, 51.5%)" stroke-width="1.5"></path><path d="M1541.31 495.04L1541.31 495.04" stroke="hsl(228.5, 77.2%, 51.5%)" stroke-width="1.5"></path><path d="M1541.31 495.04L1574.48 704.86" stroke="hsl(228.5, 77.2%, 51.5%)" stroke-width="1.5"></path><path d="M1541.31 495.04L1401.95 670.99" stroke="hsl(228.5, 77.2%, 51.5%)" stroke-width="1.5"></path><path d="M1541.31 495.04L1560.54 219.31" stroke="hsl(228.5, 77.2%, 51.5%)" stroke-width="1.5"></path><path d="M1574.48 704.86L1574.48 704.86" stroke="hsl(228.5, 77.2%, 51.5%)" stroke-width="1.5"></path><path d="M1574.48 704.86L1401.95 670.99" stroke="hsl(228.5, 77.2%, 51.5%)" stroke-width="1.5"></path><path d="M1574.48 704.86L1417.96 555.1" stroke="hsl(228.5, 77.2%, 51.5%)" stroke-width="1.5"></path><path d="M1574.48 704.86L1448.38 398.55" stroke="hsl(228.5, 77.2%, 51.5%)" stroke-width="1.5"></path><path d="M1574.48 704.86L1268.07 557.18" stroke="hsl(228.5, 77.2%, 51.5%)" stroke-width="1.5"></path><path d="M1574.48 704.86L1155.13 557.48" stroke="hsl(228.5, 77.2%, 51.5%)" stroke-width="1.5"></path><path d="M-71.98 562.46L-71.98 562.46" stroke="hsl(228.5, 77.2%, 51.5%)" stroke-width="1.5"></path><path d="M-71.98 562.46L-75.23 669.83" stroke="hsl(228.5, 77.2%, 51.5%)" stroke-width="1.5"></path><path d="M-71.98 562.46L89.08 707.89" stroke="hsl(228.5, 77.2%, 51.5%)" stroke-width="1.5"></path><path d="M-75.23 669.83L-75.23 669.83" stroke="hsl(228.5, 77.2%, 51.5%)" stroke-width="1.5"></path><path d="M-75.23 669.83L80.31 529.82" stroke="hsl(228.5, 77.2%, 51.5%)" stroke-width="1.5"></path><path d="M204.53 643.09L204.53 643.09" stroke="hsl(228.5, 77.2%, 51.5%)" stroke-width="1.5"></path><path d="M204.53 643.09L371.3 681.11" stroke="hsl(228.5, 77.2%, 51.5%)" stroke-width="1.5"></path><path d="M392.63 496.49L392.63 496.49" stroke="hsl(228.5, 77.2%, 51.5%)" stroke-width="1.5"></path><path d="M392.63 496.49L497.87 506.2" stroke="hsl(228.5, 77.2%, 51.5%)" stroke-width="1.5"></path><path d="M392.63 496.49L371.3 681.11" stroke="hsl(228.5, 77.2%, 51.5%)" stroke-width="1.5"></path><path d="M371.3 681.11L371.3 681.11" stroke="hsl(228.5, 77.2%, 51.5%)" stroke-width="1.5"></path><path d="M371.3 681.11L555.88 672.41" stroke="hsl(228.5, 77.2%, 51.5%)" stroke-width="1.5"></path><path d="M497.87 506.2L497.87 506.2" stroke="hsl(228.5, 77.2%, 51.5%)" stroke-width="1.5"></path><path d="M497.87 506.2L555.88 672.41" stroke="hsl(228.5, 77.2%, 51.5%)" stroke-width="1.5"></path><path d="M497.87 506.2L676.39 403.69" stroke="hsl(228.5, 77.2%, 51.5%)" stroke-width="1.5"></path><path d="M555.88 672.41L555.88 672.41" stroke="hsl(228.5, 77.2%, 51.5%)" stroke-width="1.5"></path><path d="M555.88 672.41L653.64 688.2" stroke="hsl(228.5, 77.2%, 51.5%)" stroke-width="1.5"></path><path d="M676.39 403.69L676.39 403.69" stroke="hsl(228.5, 77.2%, 51.5%)" stroke-width="1.5"></path><path d="M676.39 403.69L702.53 554.58" stroke="hsl(228.5, 77.2%, 51.5%)" stroke-width="1.5"></path><path d="M676.39 403.69L839.6 360.63" stroke="hsl(228.5, 77.2%, 51.5%)" stroke-width="1.5"></path><path d="M676.39 403.69L838.31 506.1" stroke="hsl(228.5, 77.2%, 51.5%)" stroke-width="1.5"></path><path d="M676.39 403.69L940.43 405.9" stroke="hsl(228.5, 77.2%, 51.5%)" stroke-width="1.5"></path><path d="M676.39 403.69L653.64 688.2" stroke="hsl(228.5, 77.2%, 51.5%)" stroke-width="1.5"></path><path d="M702.53 554.58L702.53 554.58" stroke="hsl(228.5, 77.2%, 51.5%)" stroke-width="1.5"></path><path d="M702.53 554.58L653.64 688.2" stroke="hsl(228.5, 77.2%, 51.5%)" stroke-width="1.5"></path><path d="M702.53 554.58L838.31 506.1" stroke="hsl(228.5, 77.2%, 51.5%)" stroke-width="1.5"></path><path d="M702.53 554.58L817.11 674.54" stroke="hsl(228.5, 77.2%, 51.5%)" stroke-width="1.5"></path><path d="M702.53 554.58L555.88 672.41" stroke="hsl(228.5, 77.2%, 51.5%)" stroke-width="1.5"></path><path d="M702.53 554.58L497.87 506.2" stroke="hsl(228.5, 77.2%, 51.5%)" stroke-width="1.5"></path><path d="M653.64 688.2L653.64 688.2" stroke="hsl(228.5, 77.2%, 51.5%)" stroke-width="1.5"></path><path d="M653.64 688.2L817.11 674.54" stroke="hsl(228.5, 77.2%, 51.5%)" stroke-width="1.5"></path><path d="M653.64 688.2L497.87 506.2" stroke="hsl(228.5, 77.2%, 51.5%)" stroke-width="1.5"></path><path d="M653.64 688.2L838.31 506.1" stroke="hsl(228.5, 77.2%, 51.5%)" stroke-width="1.5"></path><path d="M653.64 688.2L371.3 681.11" stroke="hsl(228.5, 77.2%, 51.5%)" stroke-width="1.5"></path><path d="M838.31 506.1L838.31 506.1" stroke="hsl(228.5, 77.2%, 51.5%)" stroke-width="1.5"></path><path d="M838.31 506.1L969 551.75" stroke="hsl(228.5, 77.2%, 51.5%)" stroke-width="1.5"></path><path d="M838.31 506.1L817.11 674.54" stroke="hsl(228.5, 77.2%, 51.5%)" stroke-width="1.5"></path><path d="M817.11 674.54L817.11 674.54" stroke="hsl(228.5, 77.2%, 51.5%)" stroke-width="1.5"></path><path d="M969 551.75L969 551.75" stroke="hsl(228.5, 77.2%, 51.5%)" stroke-width="1.5"></path><path d="M969 551.75L1155.13 557.48" stroke="hsl(228.5, 77.2%, 51.5%)" stroke-width="1.5"></path><path d="M969 551.75L817.11 674.54" stroke="hsl(228.5, 77.2%, 51.5%)" stroke-width="1.5"></path><path d="M1149.59 95.88L1149.59 95.88" stroke="hsl(228.5, 77.2%, 51.5%)" stroke-width="1.5"></path><path d="M1149.59 95.88L1123.57 216.7" stroke="hsl(228.5, 77.2%, 51.5%)" stroke-width="1.5"></path><path d="M1123.57 216.7L1123.57 216.7" stroke="hsl(228.5, 77.2%, 51.5%)" stroke-width="1.5"></path><path d="M1123.57 216.7L1264.61 216.86" stroke="hsl(228.5, 77.2%, 51.5%)" stroke-width="1.5"></path><path d="M1123.57 216.7L1260.88 73.81" stroke="hsl(228.5, 77.2%, 51.5%)" stroke-width="1.5"></path><path d="M1123.57 216.7L1263.11 364.65" stroke="hsl(228.5, 77.2%, 51.5%)" stroke-width="1.5"></path><path d="M1123.57 216.7L940.43 405.9" stroke="hsl(228.5, 77.2%, 51.5%)" stroke-width="1.5"></path><path d="M1279.71 -60.41L1279.71 -60.41" stroke="hsl(228.5, 77.2%, 51.5%)" stroke-width="1.5"></path><path d="M1279.71 -60.41L1432.81 -83.57" stroke="hsl(228.5, 77.2%, 51.5%)" stroke-width="1.5"></path><path d="M1279.71 -60.41L1149.59 95.88" stroke="hsl(228.5, 77.2%, 51.5%)" stroke-width="1.5"></path><path d="M1279.71 -60.41L1443.56 99.39" stroke="hsl(228.5, 77.2%, 51.5%)" stroke-width="1.5"></path><path d="M1264.61 216.86L1264.61 216.86" stroke="hsl(228.5, 77.2%, 51.5%)" stroke-width="1.5"></path><path d="M1264.61 216.86L1263.11 364.65" stroke="hsl(228.5, 77.2%, 51.5%)" stroke-width="1.5"></path><path d="M1263.11 364.65L1263.11 364.65" stroke="hsl(228.5, 77.2%, 51.5%)" stroke-width="1.5"></path><path d="M1263.11 364.65L1268.07 557.18" stroke="hsl(228.5, 77.2%, 51.5%)" stroke-width="1.5"></path><path d="M1263.11 364.65L1155.13 557.48" stroke="hsl(228.5, 77.2%, 51.5%)" stroke-width="1.5"></path><path d="M1268.07 557.18L1268.07 557.18" stroke="hsl(228.5, 77.2%, 51.5%)" stroke-width="1.5"></path><path d="M1268.07 557.18L1401.95 670.99" stroke="hsl(228.5, 77.2%, 51.5%)" stroke-width="1.5"></path><path d="M1432.81 -83.57L1432.81 -83.57" stroke="hsl(228.5, 77.2%, 51.5%)" stroke-width="1.5"></path><path d="M1432.81 -83.57L1577.68 -75.46" stroke="hsl(228.5, 77.2%, 51.5%)" stroke-width="1.5"></path><path d="M1432.81 -83.57L1443.56 99.39" stroke="hsl(228.5, 77.2%, 51.5%)" stroke-width="1.5"></path><path d="M1443.56 99.39L1443.56 99.39" stroke="hsl(228.5, 77.2%, 51.5%)" stroke-width="1.5"></path><path d="M1443.56 99.39L1569.98 109.91" stroke="hsl(228.5, 77.2%, 51.5%)" stroke-width="1.5"></path><path d="M1401.95 670.99L1401.95 670.99" stroke="hsl(228.5, 77.2%, 51.5%)" stroke-width="1.5"></path><path d="M1577.68 -75.46L1577.68 -75.46" stroke="hsl(228.5, 77.2%, 51.5%)" stroke-width="1.5"></path><path d="M1577.68 -75.46L1569.98 109.91" stroke="hsl(228.5, 77.2%, 51.5%)" stroke-width="1.5"></path><path d="M1577.68 -75.46L1443.56 99.39" stroke="hsl(228.5, 77.2%, 51.5%)" stroke-width="1.5"></path><path d="M1577.68 -75.46L1560.54 219.31" stroke="hsl(228.5, 77.2%, 51.5%)" stroke-width="1.5"></path><path d="M1569.98 109.91L1569.98 109.91" stroke="hsl(228.5, 77.2%, 51.5%)" stroke-width="1.5"></path><path d="M1569.98 109.91L1560.54 219.31" stroke="hsl(228.5, 77.2%, 51.5%)" stroke-width="1.5"></path><path d="M1560.54 219.31L1560.54 219.31" stroke="hsl(228.5, 77.2%, 51.5%)" stroke-width="1.5"></path><circle r="25" cx="80.31" cy="529.82" fill="url(&quot;#SvgjsRadialGradient1001&quot;)"></circle><circle r="25" cx="89.08" cy="707.89" fill="url(&quot;#SvgjsRadialGradient1001&quot;)"></circle><circle r="25" cx="839.6" cy="360.63" fill="url(&quot;#SvgjsRadialGradient1001&quot;)"></circle><circle r="25" cx="940.43" cy="405.9" fill="url(&quot;#SvgjsRadialGradient1001&quot;)"></circle><circle r="25" cx="1003.32" cy="659.36" fill="url(&quot;#SvgjsRadialGradient1001&quot;)"></circle><circle r="25" cx="1096.06" cy="358.97" fill="url(&quot;#SvgjsRadialGradient1001&quot;)"></circle><circle r="25" cx="1155.13" cy="557.48" fill="url(&quot;#SvgjsRadialGradient1001&quot;)"></circle><circle r="25" cx="1260.88" cy="73.81" fill="url(&quot;#SvgjsRadialGradient1001&quot;)"></circle><circle r="25" cx="1427.46" cy="215.94" fill="url(&quot;#SvgjsRadialGradient1001&quot;)"></circle><circle r="25" cx="1448.38" cy="398.55" fill="url(&quot;#SvgjsRadialGradient1001&quot;)"></circle><circle r="25" cx="1417.96" cy="555.1" fill="url(&quot;#SvgjsRadialGradient1001&quot;)"></circle><circle r="25" cx="1541.31" cy="495.04" fill="url(&quot;#SvgjsRadialGradient1001&quot;)"></circle><circle r="25" cx="1574.48" cy="704.86" fill="url(&quot;#SvgjsRadialGradient1001&quot;)"></circle><circle r="5" cx="-71.98" cy="562.46" fill="#8b9ad9"></circle><circle r="5" cx="-75.23" cy="669.83" fill="#8b9ad9"></circle><circle r="5" cx="204.53" cy="643.09" fill="#8b9ad9"></circle><circle r="5" cx="392.63" cy="496.49" fill="#8b9ad9"></circle><circle r="5" cx="371.3" cy="681.11" fill="#8b9ad9"></circle><circle r="5" cx="497.87" cy="506.2" fill="#8b9ad9"></circle><circle r="5" cx="555.88" cy="672.41" fill="#8b9ad9"></circle><circle r="5" cx="676.39" cy="403.69" fill="#8b9ad9"></circle><circle r="5" cx="702.53" cy="554.58" fill="#8b9ad9"></circle><circle r="5" cx="653.64" cy="688.2" fill="#8b9ad9"></circle><circle r="5" cx="838.31" cy="506.1" fill="#8b9ad9"></circle><circle r="5" cx="817.11" cy="674.54" fill="#8b9ad9"></circle><circle r="5" cx="969" cy="551.75" fill="#8b9ad9"></circle><circle r="5" cx="1149.59" cy="95.88" fill="#8b9ad9"></circle><circle r="5" cx="1123.57" cy="216.7" fill="#8b9ad9"></circle><circle r="5" cx="1279.71" cy="-60.41" fill="#8b9ad9"></circle><circle r="5" cx="1264.61" cy="216.86" fill="#8b9ad9"></circle><circle r="5" cx="1263.11" cy="364.65" fill="#8b9ad9"></circle><circle r="5" cx="1268.07" cy="557.18" fill="#8b9ad9"></circle><circle r="5" cx="1432.81" cy="-83.57" fill="#8b9ad9"></circle><circle r="5" cx="1443.56" cy="99.39" fill="#8b9ad9"></circle><circle r="5" cx="1401.95" cy="670.99" fill="#8b9ad9"></circle><circle r="5" cx="1577.68" cy="-75.46" fill="#8b9ad9"></circle><circle r="5" cx="1569.98" cy="109.91" fill="#8b9ad9"></circle><circle r="5" cx="1560.54" cy="219.31" fill="#8b9ad9"></circle></g><defs><mask id="SvgjsMask1000"><rect width="1440" height="560" fill="#ffffff"></rect></mask><radialGradient id="SvgjsRadialGradient1001"><stop stop-color="#ffffff" offset="0.1"></stop><stop stop-color="#1735b3" offset="0.2"></stop><stop stop-color="rgba(23, 53, 179, 0)" offset="1"></stop></radialGradient></defs></svg>